<?xml version="1.0" encoding="UTF-8" standalone="no"?><!DOCTYPE svg PUBLIC "-//W3C//DTD SVG 1.1//EN" "http://www.w3.org/Graphics/SVG/1.1/DTD/svg11.dtd"><svg width="100%" height="100%" viewBox="0 0 225 119" version="1.1" xmlns="http://www.w3.org/2000/svg" xmlns:xlink="http://www.w3.org/1999/xlink" xml:space="preserve" xmlns:serif="http://www.serif.com/" style="fill-rule:evenodd;clip-rule:evenodd;stroke-linejoin:round;stroke-miterlimit:2;"><g><path d="M58.236,99.763c14.634,0 24.764,-7.317 30.388,-21.951l21.05,7.945c-4.532,11.14 -11.18,19.426 -19.944,24.859c-8.764,5.433 -19.262,8.15 -31.494,8.15c-12.34,-0 -22.852,-2.362 -31.534,-7.085c-8.682,-4.723 -15.303,-11.563 -19.863,-20.518c-4.559,-8.955 -6.839,-19.712 -6.839,-32.271c-0,-12.669 2.184,-23.371 6.553,-32.108c4.368,-8.737 10.811,-15.385 19.33,-19.945c8.518,-4.559 18.948,-6.839 31.288,-6.839c13.543,-0 24.573,2.717 33.091,8.15c8.518,5.433 14.498,13.419 17.938,23.958l-21.296,5.815c-1.802,-5.788 -5.338,-10.388 -10.607,-13.801c-5.27,-3.413 -11.481,-5.119 -18.634,-5.119c-10.921,-0 -19.207,3.385 -24.859,10.156c-5.652,6.771 -8.477,16.682 -8.477,29.733c-0,8.846 1.296,16.299 3.89,22.36c2.594,6.061 6.416,10.662 11.467,13.802c5.051,3.139 11.235,4.709 18.552,4.709Z" style="fill:#231f20;fill-rule:nonzero;"/><path d="M225,1.72l-42.428,115.408l-24.49,-0l-42.674,-115.408l25.227,0l23.753,74.126c0.765,2.403 1.652,5.42 2.662,9.051c1.011,3.631 2.144,7.877 3.4,12.737c1.802,-6.826 3.098,-11.768 3.89,-14.825c0.792,-3.058 1.461,-5.379 2.007,-6.963l23.671,-74.126l24.982,0Z" style="fill:#231f20;fill-rule:nonzero;"/></g></svg>