<?xml version="1.0" encoding="UTF-8" standalone="no"?><!DOCTYPE svg PUBLIC "-//W3C//DTD SVG 1.1//EN" "http://www.w3.org/Graphics/SVG/1.1/DTD/svg11.dtd"><svg width="100%" height="100%" viewBox="0 0 134 71" version="1.1" xmlns="http://www.w3.org/2000/svg" xmlns:xlink="http://www.w3.org/1999/xlink" xml:space="preserve" xmlns:serif="http://www.serif.com/" style="fill-rule:evenodd;clip-rule:evenodd;stroke-linejoin:round;stroke-miterlimit:2;"><g><path d="M34.51,59.119c8.672,0 14.675,-4.336 18.008,-13.008l12.474,4.708c-2.686,6.601 -6.625,11.512 -11.819,14.731c-5.193,3.22 -11.414,4.83 -18.663,4.83c-7.313,-0 -13.542,-1.4 -18.687,-4.199c-5.145,-2.799 -9.068,-6.852 -11.77,-12.158c-2.702,-5.307 -4.053,-11.682 -4.053,-19.124c-0,-7.508 1.294,-13.85 3.883,-19.027c2.589,-5.178 6.407,-9.117 11.455,-11.819c5.048,-2.702 11.228,-4.053 18.541,-4.053c8.025,0 14.562,1.61 19.61,4.83c5.048,3.219 8.591,7.952 10.629,14.197l-12.619,3.446c-1.068,-3.43 -3.163,-6.156 -6.286,-8.179c-3.123,-2.022 -6.803,-3.033 -11.042,-3.033c-6.472,-0 -11.383,2.006 -14.732,6.018c-3.349,4.013 -5.023,9.886 -5.023,17.62c-0,5.242 0.768,9.659 2.305,13.25c1.537,3.592 3.802,6.318 6.796,8.179c2.993,1.861 6.657,2.791 10.993,2.791Z" style="fill:#2c3e50;fill-rule:nonzero;"/><path d="M133.333,1.019l-25.142,68.39l-14.513,0l-25.288,-68.39l14.949,0l14.076,43.927c0.453,1.424 0.979,3.212 1.578,5.363c0.598,2.152 1.27,4.668 2.014,7.548c1.068,-4.045 1.837,-6.973 2.306,-8.785c0.469,-1.812 0.865,-3.188 1.189,-4.126l14.027,-43.927l14.804,0Z" style="fill:#2c3e50;fill-rule:nonzero;"/></g></svg>