<?xml version="1.0" encoding="UTF-8" standalone="no"?><!DOCTYPE svg PUBLIC "-//W3C//DTD SVG 1.1//EN" "http://www.w3.org/Graphics/SVG/1.1/DTD/svg11.dtd"><svg width="100%" height="100%" viewBox="0 0 100 100" version="1.1" xmlns="http://www.w3.org/2000/svg" xmlns:xlink="http://www.w3.org/1999/xlink" xml:space="preserve" xmlns:serif="http://www.serif.com/" style="fill-rule:evenodd;clip-rule:evenodd;stroke-linejoin:round;stroke-miterlimit:2;"><circle cx="50" cy="50" r="50" style="fill:#f9f9f9;"/><g><path d="M33.135,62.526c4.548,-0 7.696,-2.274 9.444,-6.823l6.543,2.47c-1.409,3.462 -3.475,6.037 -6.199,7.726c-2.724,1.688 -5.986,2.533 -9.788,2.533c-3.835,-0 -7.102,-0.734 -9.801,-2.202c-2.698,-1.468 -4.756,-3.594 -6.173,-6.377c-1.417,-2.783 -2.126,-6.127 -2.126,-10.03c0,-3.937 0.679,-7.264 2.037,-9.979c1.358,-2.715 3.36,-4.782 6.008,-6.199c2.647,-1.417 5.889,-2.125 9.724,-2.125c4.209,-0 7.637,0.844 10.285,2.533c2.647,1.688 4.505,4.17 5.575,7.446l-6.619,1.807c-0.56,-1.799 -1.659,-3.229 -3.297,-4.289c-1.638,-1.061 -3.568,-1.591 -5.791,-1.591c-3.394,-0 -5.97,1.052 -7.726,3.156c-1.757,2.105 -2.635,5.185 -2.635,9.241c-0,2.749 0.403,5.066 1.209,6.95c0.806,1.883 1.994,3.313 3.564,4.289c1.57,0.976 3.492,1.464 5.766,1.464Z" style="fill:#2c3e50;fill-rule:nonzero;"/><path d="M84.965,32.054l-13.187,35.869l-7.611,-0l-13.263,-35.869l7.84,0l7.383,23.039c0.237,0.746 0.513,1.684 0.827,2.812c0.314,1.129 0.666,2.449 1.057,3.959c0.56,-2.121 0.963,-3.657 1.209,-4.608c0.246,-0.95 0.454,-1.671 0.623,-2.163l7.357,-23.039l7.765,0Z" style="fill:#2c3e50;fill-rule:nonzero;"/></g></svg>